<svg xmlns="http://www.w3.org/2000/svg" xmlns:xlink="http://www.w3.org/1999/xlink" width="500" zoomAndPan="magnify" viewBox="0 0 375 374.999991" height="500" preserveAspectRatio="xMidYMid meet" version="1.0"><defs><g/><clipPath id="cafb204e14"><path d="M 226 138.59375 L 307 138.59375 L 307 219 L 226 219 Z M 226 138.59375 " clip-rule="nonzero"/></clipPath><clipPath id="06179db701"><path d="M 226.359375 138.648438 L 307 138.648438 L 307 219 L 226.359375 219 Z M 226.359375 138.648438 " clip-rule="nonzero"/></clipPath><clipPath id="99c400b776"><path d="M 266.777344 138.648438 C 283.917969 138.648438 298.546875 149.394531 304.308594 164.515625 L 301.910156 164.367188 L 300.300781 164.246094 C 298.6875 164.058594 299.730469 163.679688 297.878906 163.867188 C 296.027344 164.058594 295.03125 164.292969 293.75 164.484375 C 292.46875 164.675781 292.898438 164.578125 290.574219 164.484375 C 288.246094 164.390625 291.230469 163.175781 287.839844 164.066406 C 284.449219 164.957031 284.78125 165.007812 283.40625 165.195312 C 282.03125 165.386719 280.011719 164.554688 278.207031 164.957031 C 276.40625 165.363281 276.191406 165.125 274.746094 165.292969 C 273.296875 165.457031 269.738281 165.957031 269.738281 165.957031 C 269.738281 165.957031 273.960938 166.097656 275.980469 166.097656 C 277.996094 166.097656 279.207031 166.242188 280.34375 166.3125 C 281.484375 166.382812 285.46875 166.5 286.371094 166.40625 C 287.273438 166.3125 288.578125 166.144531 289.335938 166.144531 C 290.09375 166.144531 290.785156 165.980469 292.113281 166.191406 C 293.441406 166.40625 293.585938 166.144531 295.242188 166.144531 C 296.90625 166.144531 298.210938 166.097656 299.492188 166.144531 C 299.929688 166.164062 302.121094 166.070312 304.824219 165.941406 C 306.1875 169.980469 306.925781 174.304688 306.925781 178.804688 C 306.925781 185.0625 305.496094 190.988281 302.941406 196.265625 L 300.9375 196.195312 L 298.25 196.074219 C 295.558594 195.886719 297.300781 195.503906 294.210938 195.695312 C 291.125 195.886719 289.460938 196.121094 287.324219 196.308594 C 285.1875 196.5 285.898438 196.40625 282.023438 196.308594 C 278.140625 196.21875 283.121094 195.003906 277.464844 195.894531 C 271.808594 196.785156 272.359375 196.832031 270.0625 197.023438 C 267.769531 197.214844 264.40625 196.382812 261.394531 196.785156 C 258.386719 197.1875 258.03125 196.949219 255.617188 197.117188 C 253.203125 197.285156 247.265625 197.78125 247.265625 197.78125 C 247.265625 197.78125 254.3125 197.925781 257.675781 197.925781 C 261.039062 197.925781 263.058594 198.066406 264.960938 198.140625 C 266.859375 198.210938 273.507812 198.328125 275.015625 198.230469 C 276.519531 198.140625 278.695312 197.972656 279.960938 197.972656 C 281.226562 197.972656 282.375 197.804688 284.59375 198.019531 C 286.808594 198.234375 287.046875 197.972656 289.816406 197.972656 C 292.589844 197.972656 294.769531 197.921875 296.902344 197.972656 C 297.421875 197.984375 299.40625 197.941406 302.121094 197.871094 C 295.332031 210.425781 282.050781 218.957031 266.773438 218.957031 C 245.972656 218.957031 228.859375 203.136719 226.824219 182.871094 C 227.660156 182.867188 228.335938 182.855469 228.703125 182.832031 C 230.207031 182.738281 232.382812 182.574219 233.648438 182.574219 C 234.914062 182.574219 236.0625 182.40625 238.28125 182.621094 C 240.496094 182.835938 240.734375 182.574219 243.503906 182.574219 C 246.277344 182.574219 248.457031 182.523438 250.589844 182.574219 C 252.730469 182.621094 280.117188 181.742188 280.117188 181.742188 L 254.625 180.792969 L 251.9375 180.675781 C 249.246094 180.484375 250.988281 180.105469 247.898438 180.296875 C 244.8125 180.484375 243.148438 180.722656 241.011719 180.910156 C 238.875 181.101562 239.585938 181.007812 235.707031 180.910156 C 231.828125 180.816406 236.808594 179.605469 231.152344 180.496094 C 228.828125 180.859375 227.554688 181.082031 226.695312 181.234375 C 226.652344 180.429688 226.621094 179.621094 226.621094 178.804688 C 226.621094 169.640625 229.691406 161.195312 234.859375 154.4375 C 235.582031 154.359375 236.347656 154.28125 236.863281 154.28125 C 237.625 154.28125 238.3125 154.117188 239.640625 154.328125 C 240.96875 154.542969 241.113281 154.28125 242.769531 154.28125 C 244.433594 154.28125 245.738281 154.234375 247.019531 154.28125 C 248.300781 154.328125 264.71875 153.453125 264.71875 153.453125 L 249.4375 152.503906 L 247.828125 152.386719 C 246.210938 152.195312 247.257812 151.816406 245.40625 152.003906 C 243.554688 152.195312 242.558594 152.433594 241.277344 152.621094 C 239.996094 152.8125 240.421875 152.714844 238.097656 152.621094 C 236.4375 152.554688 237.484375 151.917969 236.984375 151.882812 C 244.335938 143.757812 254.957031 138.648438 266.777344 138.648438 " clip-rule="nonzero"/></clipPath><clipPath id="25d428195a"><path d="M 70.421875 201 L 306 201 L 306 219 L 70.421875 219 Z M 70.421875 201 " clip-rule="nonzero"/></clipPath><clipPath id="04ab444ec6"><path d="M 278 139 L 317.921875 139 L 317.921875 205 L 278 205 Z M 278 139 " clip-rule="nonzero"/></clipPath><clipPath id="611cfba15f"><rect x="0" width="192" y="0" height="102"/></clipPath><clipPath id="15729fbd31"><rect x="0" width="170" y="0" height="19"/></clipPath></defs><g clip-path="url(#cafb204e14)"><path fill="#f15a29" d="M 266.777344 138.648438 C 283.917969 138.648438 298.546875 149.394531 304.308594 164.515625 L 301.910156 164.367188 L 300.300781 164.246094 C 298.6875 164.058594 299.730469 163.679688 297.878906 163.867188 C 296.027344 164.058594 295.03125 164.292969 293.75 164.484375 C 292.46875 164.675781 292.898438 164.578125 290.574219 164.484375 C 288.246094 164.390625 291.230469 163.175781 287.839844 164.066406 C 284.449219 164.957031 284.78125 165.007812 283.40625 165.195312 C 282.03125 165.386719 280.011719 164.554688 278.207031 164.957031 C 276.40625 165.363281 276.191406 165.125 274.746094 165.292969 C 273.296875 165.457031 269.738281 165.957031 269.738281 165.957031 C 269.738281 165.957031 273.960938 166.097656 275.980469 166.097656 C 277.996094 166.097656 279.207031 166.242188 280.34375 166.3125 C 281.484375 166.382812 285.46875 166.5 286.371094 166.40625 C 287.273438 166.3125 288.578125 166.144531 289.335938 166.144531 C 290.09375 166.144531 290.785156 165.980469 292.113281 166.191406 C 293.441406 166.40625 293.585938 166.144531 295.242188 166.144531 C 296.90625 166.144531 298.210938 166.097656 299.492188 166.144531 C 299.929688 166.164062 302.121094 166.070312 304.824219 165.941406 C 306.1875 169.980469 306.925781 174.308594 306.925781 178.804688 C 306.925781 185.0625 305.496094 190.988281 302.941406 196.265625 L 300.9375 196.195312 L 298.25 196.074219 C 295.558594 195.886719 297.300781 195.503906 294.210938 195.695312 C 291.125 195.886719 289.460938 196.121094 287.324219 196.308594 C 285.1875 196.5 285.898438 196.40625 282.023438 196.308594 C 278.140625 196.21875 283.121094 195.003906 277.464844 195.894531 C 271.808594 196.785156 272.359375 196.832031 270.0625 197.023438 C 267.769531 197.214844 264.40625 196.382812 261.394531 196.785156 C 258.386719 197.1875 258.03125 196.949219 255.617188 197.117188 C 253.203125 197.285156 247.265625 197.78125 247.265625 197.78125 C 247.265625 197.78125 254.3125 197.925781 257.675781 197.925781 C 261.039062 197.925781 263.058594 198.066406 264.960938 198.140625 C 266.859375 198.210938 273.507812 198.328125 275.015625 198.230469 C 276.519531 198.140625 278.695312 197.972656 279.960938 197.972656 C 281.226562 197.972656 282.375 197.804688 284.59375 198.019531 C 286.808594 198.234375 287.046875 197.972656 289.816406 197.972656 C 292.589844 197.972656 294.769531 197.921875 296.902344 197.972656 C 297.421875 197.984375 299.40625 197.941406 302.121094 197.871094 C 295.332031 210.425781 282.050781 218.957031 266.773438 218.957031 C 245.972656 218.957031 228.859375 203.136719 226.824219 182.871094 C 227.660156 182.867188 228.335938 182.855469 228.703125 182.832031 C 230.207031 182.738281 232.382812 182.574219 233.648438 182.574219 C 234.914062 182.574219 236.0625 182.40625 238.28125 182.621094 C 240.496094 182.835938 240.734375 182.574219 243.503906 182.574219 C 246.277344 182.574219 248.457031 182.523438 250.589844 182.574219 C 252.730469 182.621094 280.117188 181.742188 280.117188 181.742188 L 254.625 180.792969 L 251.9375 180.675781 C 249.246094 180.484375 250.988281 180.105469 247.898438 180.296875 C 244.8125 180.484375 243.148438 180.722656 241.011719 180.910156 C 238.875 181.101562 239.585938 181.007812 235.707031 180.910156 C 231.828125 180.816406 236.808594 179.605469 231.152344 180.496094 C 228.828125 180.859375 227.554688 181.082031 226.695312 181.234375 C 226.652344 180.429688 226.621094 179.621094 226.621094 178.804688 C 226.621094 169.640625 229.691406 161.195312 234.859375 154.4375 C 235.582031 154.359375 236.347656 154.28125 236.863281 154.28125 C 237.625 154.28125 238.3125 154.117188 239.640625 154.328125 C 240.96875 154.542969 241.113281 154.28125 242.769531 154.28125 C 244.433594 154.28125 245.738281 154.234375 247.019531 154.28125 C 248.300781 154.328125 264.71875 153.453125 264.71875 153.453125 L 249.4375 152.503906 L 247.828125 152.386719 C 246.210938 152.195312 247.257812 151.816406 245.40625 152.003906 C 243.554688 152.195312 242.558594 152.433594 241.277344 152.621094 C 239.996094 152.8125 240.421875 152.714844 238.097656 152.621094 C 236.4375 152.554688 237.484375 151.917969 236.984375 151.882812 C 244.335938 143.757812 254.957031 138.648438 266.777344 138.648438 " fill-opacity="1" fill-rule="evenodd"/></g><g clip-path="url(#06179db701)"><g clip-path="url(#99c400b776)"><path fill="#ffcf00" d="M 226.621094 138.648438 L 306.929688 138.648438 L 306.929688 218.957031 L 226.621094 218.957031 Z M 226.621094 138.648438 " fill-opacity="1" fill-rule="nonzero"/></g></g><g clip-path="url(#25d428195a)"><path fill="#00aeee" d="M 70.421875 211.6875 C 152.679688 183.394531 208.1875 231.941406 305.722656 201.238281 C 213.886719 244.371094 141.507812 191.753906 70.421875 211.6875 " fill-opacity="1" fill-rule="evenodd"/></g><path fill="#092768" d="M 191.359375 205.589844 C 253.40625 208.746094 261.035156 195.238281 299.53125 201.527344 C 299.53125 201.527344 248.640625 217.496094 191.359375 205.589844 " fill-opacity="1" fill-rule="evenodd"/><g clip-path="url(#04ab444ec6)"><path fill="#092768" d="M 296.652344 159.402344 C 296.652344 159.410156 295.507812 187.039062 280.140625 201.925781 L 285.042969 204.703125 C 285.042969 204.703125 297.847656 193.597656 297.746094 159.238281 C 297.859375 159.09375 297.980469 158.953125 298.109375 158.816406 C 299.164062 158.582031 300.835938 158.839844 301.507812 158.839844 C 302.367188 158.839844 303.414062 159.683594 303.414062 159.683594 L 303.605469 158.160156 C 303.605469 158.160156 304.144531 160.167969 305 160.328125 C 305.859375 160.492188 306.90625 161.625 306.90625 161.625 L 307.574219 160.199219 C 307.574219 160.199219 307.128906 162.757812 307.574219 163.082031 C 308.019531 163.40625 308.460938 164.957031 308.460938 164.957031 L 311.066406 162.53125 C 311.066406 162.53125 309.351562 165.023438 309.128906 165.445312 C 308.90625 165.867188 309.128906 166.640625 309.667969 167.386719 C 310.210938 168.128906 310.9375 169.878906 310.9375 169.878906 L 312.652344 167.773438 C 312.652344 167.773438 312.019531 169.457031 311.574219 170.105469 C 311.128906 170.753906 311.320312 171.402344 312.273438 172.695312 C 313.226562 173.988281 315.195312 178.003906 315.195312 178.003906 C 318.015625 155.851562 304.035156 156.890625 298.988281 157.957031 C 300.175781 156.910156 301.445312 156.148438 301.445312 156.148438 L 300.523438 155.515625 C 300.523438 155.515625 302.152344 156.003906 302.453125 155.585938 C 302.753906 155.171875 303.871094 154.828125 304.191406 154.503906 C 304.507812 154.179688 303.425781 153.128906 303.425781 153.128906 C 303.425781 153.128906 305.148438 154.503906 305.800781 153.960938 C 306.457031 153.417969 307.113281 153.148438 307.148438 153.003906 C 307.183594 152.859375 306.261719 151.160156 306.261719 151.160156 C 306.261719 151.160156 307.664062 153.058594 308.335938 152.859375 C 309.007812 152.660156 311.082031 152.894531 311.082031 152.894531 L 311.402344 150.472656 C 311.402344 150.472656 311.3125 152.96875 311.828125 153.3125 C 312.339844 153.652344 314.058594 154.359375 314.058594 154.359375 L 314.589844 152.296875 C 314.589844 152.296875 314.589844 154.628906 315.015625 154.628906 C 315.441406 154.628906 317.941406 155.535156 317.941406 155.535156 C 309.558594 141.746094 299.707031 155.289062 297.746094 158.261719 C 297.640625 158.292969 297.546875 158.320312 297.472656 158.339844 C 297.671875 157.164062 297.921875 155.765625 298.0625 155.425781 C 298.316406 154.8125 298.410156 153.90625 298.410156 153.90625 L 297.839844 153.386719 C 297.839844 153.386719 298.601562 153.777344 299.175781 152.644531 C 299.746094 151.507812 299.839844 151.089844 299.839844 151.089844 L 298.476562 150.214844 C 298.476562 150.214844 300.285156 150.925781 300.445312 150.148438 C 300.601562 149.375 301.460938 148.855469 301.460938 148.855469 L 300.382812 147.820312 C 300.382812 147.820312 302.253906 148.757812 302.414062 147.789062 C 302.570312 146.816406 304.792969 146.203125 304.792969 146.203125 C 299.902344 144.832031 297.976562 148.375 297.265625 152.175781 C 296.90625 147.488281 295.898438 141.9375 293.261719 139.113281 C 293.261719 139.113281 296.828125 147.546875 296.875 157.75 C 296.171875 155.65625 294.722656 152.445312 292.144531 150.960938 C 288.152344 148.660156 279.6875 146.878906 278 158.761719 C 278 158.761719 279.101562 156.671875 279.902344 156.234375 C 280.703125 155.796875 281.160156 155.152344 281.15625 154.84375 C 281.148438 154.535156 280.613281 153.113281 280.613281 153.113281 L 281.5625 154.601562 C 281.5625 154.601562 282.203125 153.5 282.773438 153.386719 C 283.339844 153.273438 283.0625 150.570312 283.09375 150.699219 C 283.125 150.828125 283.585938 152.902344 283.585938 152.902344 C 283.585938 152.902344 284.425781 152.304688 285.328125 152.449219 C 286.230469 152.59375 287.222656 150.019531 287.222656 150.019531 L 286.464844 152.480469 C 286.464844 152.480469 288.273438 152.414062 288.894531 152.804688 C 289.515625 153.191406 291.765625 151.753906 291.765625 151.753906 L 289.996094 153.113281 C 289.996094 153.113281 290.9375 153.226562 291.414062 153.890625 C 291.890625 154.550781 294.011719 153.582031 294.011719 153.582031 L 292.78125 154.617188 C 292.78125 154.617188 294.066406 155.152344 294.417969 155.75 C 294.765625 156.347656 295.699219 156.429688 295.699219 156.429688 L 295.070312 156.542969 C 295.070312 156.542969 295.289062 156.882812 295.742188 157.320312 C 295.941406 157.515625 296.25 158.082031 296.527344 158.65625 C 292.800781 156.777344 278.527344 151.007812 278.472656 172.90625 C 278.472656 172.90625 279.933594 170.480469 280.886719 169.476562 C 281.839844 168.472656 280.632812 165.753906 280.632812 165.753906 L 281.839844 167.46875 C 281.839844 167.46875 281.933594 165.589844 283.078125 164.585938 C 284.21875 163.582031 283.457031 160.347656 283.457031 160.347656 L 284.378906 163.132812 C 284.378906 163.132812 284.15625 162.09375 285.265625 161.707031 C 286.378906 161.320312 286.28125 157.757812 286.28125 157.757812 L 286.824219 160.832031 C 286.824219 160.832031 287.554688 160.121094 288.726562 160.121094 C 289.902344 160.121094 290.378906 157.691406 290.378906 157.691406 L 290.730469 160.089844 C 290.730469 160.089844 291.425781 158.988281 293.617188 158.890625 C 294.890625 158.832031 295.972656 159.136719 296.652344 159.402344 " fill-opacity="1" fill-rule="evenodd"/></g><path fill="#092768" d="M 284.496094 180.089844 C 284.492188 180.09375 283.871094 195.105469 275.523438 203.195312 L 278.1875 204.703125 C 278.1875 204.703125 285.144531 198.667969 285.089844 180.003906 C 285.148438 179.925781 285.214844 179.847656 285.285156 179.769531 C 285.855469 179.644531 286.765625 179.785156 287.132812 179.785156 C 287.597656 179.785156 288.167969 180.242188 288.167969 180.242188 L 288.269531 179.414062 C 288.269531 179.414062 288.5625 180.507812 289.027344 180.59375 C 289.496094 180.683594 290.066406 181.296875 290.066406 181.296875 L 290.425781 180.523438 C 290.425781 180.523438 290.183594 181.914062 290.425781 182.089844 C 290.667969 182.265625 290.910156 183.109375 290.910156 183.109375 L 292.324219 181.792969 C 292.324219 181.792969 291.390625 183.144531 291.273438 183.375 C 291.152344 183.601562 291.273438 184.023438 291.566406 184.429688 C 291.859375 184.832031 292.253906 185.78125 292.253906 185.78125 L 293.1875 184.640625 C 293.1875 184.640625 292.84375 185.554688 292.601562 185.90625 C 292.359375 186.257812 292.460938 186.609375 292.980469 187.3125 C 293.496094 188.015625 294.566406 190.199219 294.566406 190.199219 C 296.097656 178.160156 288.503906 178.726562 285.761719 179.304688 C 286.410156 178.738281 287.09375 178.324219 287.09375 178.324219 L 286.59375 177.980469 C 286.59375 177.980469 287.480469 178.242188 287.644531 178.019531 C 287.808594 177.792969 288.414062 177.605469 288.585938 177.429688 C 288.761719 177.253906 288.171875 176.683594 288.171875 176.683594 C 288.171875 176.683594 289.109375 177.429688 289.464844 177.136719 C 289.820312 176.839844 290.175781 176.691406 290.195312 176.613281 C 290.214844 176.535156 289.714844 175.613281 289.714844 175.613281 C 289.714844 175.613281 290.472656 176.644531 290.839844 176.535156 C 291.207031 176.429688 292.332031 176.554688 292.332031 176.554688 L 292.507812 175.242188 C 292.507812 175.242188 292.457031 176.59375 292.738281 176.78125 C 293.015625 176.96875 293.949219 177.351562 293.949219 177.351562 L 294.238281 176.230469 C 294.238281 176.230469 294.238281 177.5 294.46875 177.5 C 294.703125 177.5 296.058594 177.988281 296.058594 177.988281 C 291.503906 170.496094 286.152344 177.859375 285.085938 179.472656 C 285.027344 179.488281 284.980469 179.503906 284.9375 179.515625 C 285.046875 178.875 285.183594 178.117188 285.257812 177.929688 C 285.398438 177.597656 285.449219 177.105469 285.449219 177.105469 L 285.136719 176.824219 C 285.136719 176.824219 285.550781 177.035156 285.863281 176.417969 C 286.171875 175.800781 286.226562 175.574219 286.226562 175.574219 L 285.484375 175.097656 C 285.484375 175.097656 286.464844 175.484375 286.554688 175.0625 C 286.640625 174.640625 287.105469 174.359375 287.105469 174.359375 L 286.519531 173.796875 C 286.519531 173.796875 287.535156 174.308594 287.621094 173.78125 C 287.707031 173.253906 288.914062 172.917969 288.914062 172.917969 C 286.257812 172.171875 285.210938 174.097656 284.824219 176.164062 C 284.628906 173.617188 284.082031 170.601562 282.648438 169.066406 C 282.648438 169.066406 284.585938 173.648438 284.613281 179.195312 C 284.230469 178.058594 283.445312 176.308594 282.042969 175.503906 C 279.875 174.253906 275.273438 173.289062 274.355469 179.742188 C 274.355469 179.742188 274.957031 178.609375 275.390625 178.371094 C 275.828125 178.132812 276.074219 177.78125 276.070312 177.613281 C 276.070312 177.445312 275.777344 176.671875 275.777344 176.671875 L 276.292969 177.480469 C 276.292969 177.480469 276.644531 176.882812 276.949219 176.824219 C 277.257812 176.761719 277.109375 175.292969 277.125 175.363281 C 277.144531 175.433594 277.390625 176.558594 277.390625 176.558594 C 277.390625 176.558594 277.851562 176.234375 278.339844 176.3125 C 278.828125 176.390625 279.371094 174.992188 279.371094 174.992188 L 278.957031 176.328125 C 278.957031 176.328125 279.9375 176.292969 280.277344 176.503906 C 280.617188 176.71875 281.835938 175.933594 281.835938 175.933594 L 280.875 176.671875 C 280.875 176.671875 281.386719 176.734375 281.648438 177.09375 C 281.90625 177.457031 283.058594 176.929688 283.058594 176.929688 L 282.386719 177.492188 C 282.386719 177.492188 283.085938 177.78125 283.277344 178.105469 C 283.464844 178.429688 283.972656 178.476562 283.972656 178.476562 L 283.632812 178.535156 C 283.632812 178.535156 283.75 178.722656 283.996094 178.960938 C 284.105469 179.0625 284.273438 179.371094 284.425781 179.683594 C 282.398438 178.664062 274.644531 175.53125 274.613281 187.425781 C 274.613281 187.425781 275.40625 186.109375 275.925781 185.5625 C 276.441406 185.015625 275.789062 183.539062 275.789062 183.539062 L 276.441406 184.472656 C 276.441406 184.472656 276.496094 183.453125 277.117188 182.90625 C 277.734375 182.363281 277.324219 180.601562 277.324219 180.601562 L 277.824219 182.117188 C 277.824219 182.117188 277.703125 181.554688 278.304688 181.34375 C 278.910156 181.128906 278.859375 179.195312 278.859375 179.195312 L 279.152344 180.867188 C 279.152344 180.867188 279.546875 180.480469 280.1875 180.480469 C 280.824219 180.480469 281.082031 179.160156 281.082031 179.160156 L 281.273438 180.464844 C 281.273438 180.464844 281.652344 179.863281 282.84375 179.8125 C 283.535156 179.78125 284.125 179.945312 284.496094 180.089844 " fill-opacity="1" fill-rule="evenodd"/><g transform="matrix(1, 0, 0, 1, 73, 127)"><g clip-path="url(#611cfba15f)"><g fill="#092768" fill-opacity="1"><g transform="translate(1.904336, 64.681287)"><g><path d="M 90.1875 -39.703125 C 90.132812 -39.609375 90.019531 -39.601562 89.84375 -39.6875 C 89.664062 -39.769531 89.46875 -39.84375 89.25 -39.90625 C 88.894531 -40.082031 88.476562 -40.1875 88 -40.21875 C 86.78125 -40.28125 85.273438 -39.835938 83.484375 -38.890625 C 81.691406 -37.953125 79.765625 -36.703125 77.703125 -35.140625 C 75.640625 -33.585938 73.59375 -31.894531 71.5625 -30.0625 C 69.539062 -28.226562 67.648438 -26.46875 65.890625 -24.78125 C 64.140625 -23.101562 62.710938 -21.6875 61.609375 -20.53125 C 54.628906 -13.257812 48.304688 -7.53125 42.640625 -3.34375 C 36.972656 0.832031 31.710938 3.757812 26.859375 5.4375 C 22.003906 7.125 17.234375 7.847656 12.546875 7.609375 C 10.585938 7.503906 8.675781 7.09375 6.8125 6.375 C 4.957031 5.65625 3.429688 4.441406 2.234375 2.734375 C 1.046875 1.035156 0.53125 -1.316406 0.6875 -4.328125 C 0.894531 -8.390625 2.410156 -12.382812 5.234375 -16.3125 C 8.054688 -20.25 11.867188 -23.679688 16.671875 -26.609375 C 18.304688 -27.597656 19.960938 -28.46875 21.640625 -29.21875 C 23.316406 -29.976562 24.9375 -30.632812 26.5 -31.1875 C 26.195312 -31.519531 25.929688 -32.035156 25.703125 -32.734375 C 25.484375 -33.429688 25.394531 -34.203125 25.4375 -35.046875 C 25.59375 -38.222656 26.921875 -41.003906 29.421875 -43.390625 C 31.921875 -45.773438 35.265625 -47.585938 39.453125 -48.828125 C 43.648438 -50.078125 48.363281 -50.570312 53.59375 -50.3125 C 58.125 -50.082031 62.300781 -49.550781 66.125 -48.71875 C 69.945312 -47.882812 73.265625 -47.007812 76.078125 -46.09375 C 78.890625 -45.1875 81.019531 -44.457031 82.46875 -43.90625 C 83.144531 -43.664062 83.957031 -43.347656 84.90625 -42.953125 C 85.863281 -42.554688 86.796875 -42.132812 87.703125 -41.6875 C 88.617188 -41.25 89.304688 -40.859375 89.765625 -40.515625 C 90.171875 -40.285156 90.3125 -40.015625 90.1875 -39.703125 Z M 86.84375 -41.0625 C 83.40625 -42.289062 80.039062 -43.347656 76.75 -44.234375 C 73.46875 -45.117188 69.976562 -45.851562 66.28125 -46.4375 C 62.582031 -47.019531 58.332031 -47.429688 53.53125 -47.671875 C 48.457031 -47.929688 43.894531 -47.53125 39.84375 -46.46875 C 35.800781 -45.40625 32.59375 -43.875 30.21875 -41.875 C 27.84375 -39.882812 26.585938 -37.566406 26.453125 -34.921875 C 26.378906 -33.390625 26.664062 -32.210938 27.3125 -31.390625 C 29.945312 -32.265625 32.460938 -32.828125 34.859375 -33.078125 C 37.253906 -33.328125 39.375 -33.40625 41.21875 -33.3125 C 43.007812 -33.21875 44.644531 -32.929688 46.125 -32.453125 C 47.613281 -31.984375 48.8125 -31.285156 49.71875 -30.359375 C 50.625 -29.441406 51.039062 -28.273438 50.96875 -26.859375 C 50.914062 -25.691406 50.601562 -24.710938 50.03125 -23.921875 C 49.457031 -23.128906 49.046875 -22.851562 48.796875 -23.09375 C 48.691406 -23.195312 48.851562 -23.550781 49.28125 -24.15625 C 49.707031 -24.769531 49.953125 -25.632812 50.015625 -26.75 C 50.078125 -28.0625 49.6875 -29.082031 48.84375 -29.8125 C 48.007812 -30.550781 46.914062 -31.097656 45.5625 -31.453125 C 44.21875 -31.804688 42.75 -32.023438 41.15625 -32.109375 C 39.257812 -32.203125 37.050781 -31.953125 34.53125 -31.359375 C 32.019531 -30.773438 29.425781 -29.929688 26.75 -28.828125 C 24.070312 -27.734375 21.503906 -26.425781 19.046875 -24.90625 C 15.984375 -23.050781 13.175781 -21.023438 10.625 -18.828125 C 8.082031 -16.628906 6.035156 -14.285156 4.484375 -11.796875 C 2.941406 -9.304688 2.097656 -6.664062 1.953125 -3.875 C 1.828125 -1.488281 2.242188 0.425781 3.203125 1.875 C 4.160156 3.332031 5.453125 4.40625 7.078125 5.09375 C 8.710938 5.78125 10.429688 6.171875 12.234375 6.265625 C 16.128906 6.460938 20.4375 5.421875 25.15625 3.140625 C 29.875 0.859375 34.898438 -2.300781 40.234375 -6.34375 C 45.578125 -10.382812 51.046875 -14.957031 56.640625 -20.0625 C 63.253906 -26.070312 69.046875 -30.960938 74.015625 -34.734375 C 78.992188 -38.503906 83.269531 -40.613281 86.84375 -41.0625 Z M 86.84375 -41.0625 "/></g></g></g><g fill="#092768" fill-opacity="1"><g transform="translate(58.269002, 67.240771)"><g><path d="M 23.28125 -29.09375 C 23.914062 -29.082031 24.226562 -28.8125 24.21875 -28.28125 C 24.207031 -27.914062 23.875 -27.351562 23.21875 -26.59375 C 22.570312 -25.84375 21.523438 -24.953125 20.078125 -23.921875 C 19.117188 -23.253906 18.113281 -22.601562 17.0625 -21.96875 C 16.019531 -21.332031 15.203125 -20.726562 14.609375 -20.15625 C 14.171875 -19.632812 13.828125 -18.992188 13.578125 -18.234375 C 13.328125 -17.472656 13.144531 -16.773438 13.03125 -16.140625 C 12.78125 -14.929688 12.46875 -13.484375 12.09375 -11.796875 C 11.71875 -10.117188 11.007812 -8.40625 9.96875 -6.65625 C 8.9375 -4.90625 7.207031 -3.265625 4.78125 -1.734375 C 6.226562 -2.390625 7.660156 -3.132812 9.078125 -3.96875 C 10.492188 -4.8125 11.847656 -5.671875 13.140625 -6.546875 C 14.203125 -7.265625 15.148438 -7.941406 15.984375 -8.578125 C 16.828125 -9.222656 17.734375 -9.960938 18.703125 -10.796875 C 19.140625 -11.210938 19.457031 -11.253906 19.65625 -10.921875 C 19.914062 -10.710938 19.859375 -10.429688 19.484375 -10.078125 C 18.554688 -9.234375 17.570312 -8.425781 16.53125 -7.65625 C 15.488281 -6.882812 14.484375 -6.164062 13.515625 -5.5 C 12.015625 -4.476562 10.539062 -3.570312 9.09375 -2.78125 C 7.644531 -2 6.390625 -1.40625 5.328125 -1 C 3.835938 -0.394531 2.398438 0.0234375 1.015625 0.265625 C -0.359375 0.503906 -1.597656 0.609375 -2.703125 0.578125 C -3.921875 0.554688 -4.894531 0.3125 -5.625 -0.15625 C -6.351562 -0.625 -6.707031 -1.382812 -6.6875 -2.4375 C -6.65625 -3.707031 -5.753906 -5.269531 -3.984375 -7.125 C -3.492188 -7.65625 -2.925781 -8.175781 -2.28125 -8.6875 C -1.632812 -9.207031 -1.046875 -9.671875 -0.515625 -10.078125 C 0.296875 -10.691406 1.046875 -11.175781 1.734375 -11.53125 C 2.429688 -11.894531 3.046875 -12.070312 3.578125 -12.0625 C 5.191406 -13.394531 6.9375 -14.863281 8.8125 -16.46875 C 10.695312 -18.070312 12.160156 -19.441406 13.203125 -20.578125 C 14.171875 -21.722656 15.085938 -22.75 15.953125 -23.65625 C 16.816406 -24.5625 17.679688 -25.375 18.546875 -26.09375 C 19.617188 -27.03125 20.539062 -27.765625 21.3125 -28.296875 C 22.09375 -28.835938 22.75 -29.101562 23.28125 -29.09375 Z M 12.671875 -18.859375 C 11.597656 -17.710938 10.296875 -16.476562 8.765625 -15.15625 C 7.234375 -13.84375 5.660156 -12.539062 4.046875 -11.25 C 3.921875 -10.882812 3.585938 -10.425781 3.046875 -9.875 C 2.515625 -9.332031 1.742188 -8.757812 0.734375 -8.15625 C 0.191406 -7.789062 -0.476562 -7.378906 -1.28125 -6.921875 C -2.082031 -6.460938 -2.78125 -6.03125 -3.375 -5.625 C -4.019531 -5.15625 -4.570312 -4.648438 -5.03125 -4.109375 C -5.488281 -3.566406 -5.722656 -3.003906 -5.734375 -2.421875 C -5.742188 -1.734375 -5.515625 -1.289062 -5.046875 -1.09375 C -4.578125 -0.90625 -4.101562 -0.804688 -3.625 -0.796875 C -2.414062 -0.765625 -1.007812 -1.207031 0.59375 -2.125 C 2.207031 -3.039062 3.796875 -4.359375 5.359375 -6.078125 C 6.328125 -7.054688 7.300781 -8.3125 8.28125 -9.84375 C 9.269531 -11.382812 10.164062 -12.96875 10.96875 -14.59375 C 11.769531 -16.21875 12.335938 -17.640625 12.671875 -18.859375 Z M 12.671875 -18.859375 "/></g></g></g><g fill="#092768" fill-opacity="1"><g transform="translate(75.463906, 67.637262)"><g><path d="M 25.5 -23.21875 C 26.40625 -23.21875 27.054688 -23.003906 27.453125 -22.578125 C 27.847656 -22.160156 28.046875 -21.691406 28.046875 -21.171875 C 28.046875 -20.210938 27.617188 -19.148438 26.765625 -17.984375 C 25.910156 -16.828125 24.910156 -15.671875 23.765625 -14.515625 C 22.628906 -13.359375 21.585938 -12.359375 20.640625 -11.515625 C 19.367188 -10.359375 18.203125 -9.265625 17.140625 -8.234375 C 16.078125 -7.203125 15.125 -6.238281 14.28125 -5.34375 C 13.28125 -4.300781 12.550781 -3.472656 12.09375 -2.859375 C 11.644531 -2.253906 11.421875 -1.738281 11.421875 -1.3125 C 11.421875 -0.789062 11.707031 -0.53125 12.28125 -0.53125 C 12.914062 -0.53125 13.84375 -0.828125 15.0625 -1.421875 C 16.28125 -2.023438 17.550781 -2.804688 18.875 -3.765625 C 20.25 -4.753906 21.742188 -5.921875 23.359375 -7.265625 C 24.984375 -8.609375 26.320312 -9.703125 27.375 -10.546875 C 27.53125 -10.703125 27.710938 -10.832031 27.921875 -10.9375 C 28.140625 -11.039062 28.328125 -11.015625 28.484375 -10.859375 C 28.691406 -10.648438 28.691406 -10.425781 28.484375 -10.1875 C 28.273438 -9.945312 28.066406 -9.75 27.859375 -9.59375 C 26.628906 -8.53125 25.234375 -7.351562 23.671875 -6.0625 C 22.117188 -4.78125 20.597656 -3.613281 19.109375 -2.5625 C 17.679688 -1.5625 16.289062 -0.757812 14.9375 -0.15625 C 13.59375 0.445312 12.445312 0.75 11.5 0.75 C 9.59375 0.75 8.640625 -0.203125 8.640625 -2.109375 C 8.648438 -3.378906 9.238281 -4.832031 10.40625 -6.46875 C 11.414062 -7.84375 12.394531 -9.015625 13.34375 -9.984375 C 14.300781 -10.960938 15.597656 -12.191406 17.234375 -13.671875 C 17.828125 -14.242188 18.570312 -14.894531 19.46875 -15.625 C 20.363281 -16.363281 21.257812 -17.128906 22.15625 -17.921875 C 23.0625 -18.722656 23.816406 -19.4375 24.421875 -20.0625 C 25.035156 -20.6875 25.34375 -21.1875 25.34375 -21.5625 C 25.34375 -21.875 25.160156 -22.035156 24.796875 -22.046875 C 24.109375 -22.046875 22.96875 -21.648438 21.375 -20.859375 C 19.789062 -20.078125 18.003906 -19.054688 16.015625 -17.796875 C 14.035156 -16.535156 12.128906 -15.234375 10.296875 -13.890625 C 8.472656 -12.546875 6.976562 -11.316406 5.8125 -10.203125 C 4.5 -8.992188 3.347656 -7.863281 2.359375 -6.8125 C 1.378906 -5.757812 0.375 -4.640625 -0.65625 -3.453125 C -1.695312 -2.265625 -2.90625 -0.773438 -4.28125 1.015625 C -4.59375 1.015625 -4.84375 0.828125 -5.03125 0.453125 C -5.21875 0.0859375 -5.3125 -0.332031 -5.3125 -0.8125 C -5.3125 -1.394531 -4.816406 -2.472656 -3.828125 -4.046875 C -2.847656 -5.628906 -1.515625 -7.488281 0.171875 -9.625 C 1.867188 -11.769531 3.753906 -13.921875 5.828125 -16.078125 C 7.835938 -18.234375 10.035156 -20.457031 12.421875 -22.75 C 14.816406 -25.039062 17.21875 -27.238281 19.625 -29.34375 C 22.03125 -31.457031 24.304688 -33.359375 26.453125 -35.046875 C 28.597656 -36.734375 30.460938 -38.070312 32.046875 -39.0625 C 32.628906 -39.4375 33.359375 -39.832031 34.234375 -40.25 C 35.109375 -40.675781 35.890625 -40.988281 36.578125 -41.1875 C 37.367188 -41.445312 38.148438 -41.601562 38.921875 -41.65625 C 39.691406 -41.71875 40.578125 -41.75 41.578125 -41.75 C 41.785156 -41.738281 41.78125 -41.679688 41.5625 -41.578125 C 40.40625 -41.316406 39.242188 -40.828125 38.078125 -40.109375 C 36.910156 -39.398438 35.957031 -38.757812 35.21875 -38.1875 C 33.425781 -36.863281 31.320312 -35.210938 28.90625 -33.234375 C 26.488281 -31.265625 23.984375 -29.125 21.390625 -26.8125 C 18.796875 -24.5 16.28125 -22.15625 13.84375 -19.78125 C 11.40625 -17.40625 9.257812 -15.191406 7.40625 -13.140625 C 7.300781 -13.035156 7.257812 -12.957031 7.28125 -12.90625 C 7.3125 -12.851562 7.351562 -12.851562 7.40625 -12.90625 C 8.414062 -13.738281 9.710938 -14.734375 11.296875 -15.890625 C 12.890625 -17.054688 14.585938 -18.203125 16.390625 -19.328125 C 18.191406 -20.460938 19.894531 -21.394531 21.5 -22.125 C 23.113281 -22.863281 24.445312 -23.226562 25.5 -23.21875 Z M 25.5 -23.21875 "/></g></g></g><g fill="#092768" fill-opacity="1"><g transform="translate(102.270753, 67.760406)"><g><path d="M 18.859375 -22.078125 C 16.515625 -20.492188 14.210938 -18.679688 11.953125 -16.640625 C 9.703125 -14.609375 7.707031 -12.6875 5.96875 -10.875 C 4.238281 -9.0625 2.941406 -7.644531 2.078125 -6.625 C 1.148438 -5.550781 0.40625 -4.546875 -0.15625 -3.609375 C -0.71875 -2.671875 -0.992188 -1.9375 -0.984375 -1.40625 C -0.972656 -0.882812 -0.703125 -0.628906 -0.171875 -0.640625 C 0.359375 -0.648438 1.078125 -0.914062 1.984375 -1.4375 C 2.898438 -1.957031 3.851562 -2.570312 4.84375 -3.28125 C 5.832031 -3.988281 6.691406 -4.671875 7.421875 -5.328125 C 9.335938 -7.054688 11.082031 -8.664062 12.65625 -10.15625 C 14.238281 -11.644531 15.492188 -12.847656 16.421875 -13.765625 C 18.335938 -15.660156 20.148438 -17.300781 21.859375 -18.6875 C 23.578125 -20.082031 25.328125 -21.144531 27.109375 -21.875 C 27.316406 -21.925781 27.5625 -21.992188 27.84375 -22.078125 C 28.132812 -22.160156 28.3125 -22.203125 28.375 -22.203125 C 28.789062 -22.210938 29.003906 -22.082031 29.015625 -21.8125 C 29.015625 -21.65625 28.863281 -21.421875 28.5625 -21.109375 C 25.125 -18.378906 22.320312 -15.75 20.15625 -13.21875 C 18 -10.6875 16.328125 -8.613281 15.140625 -7 C 14.378906 -5.976562 13.753906 -5.023438 13.265625 -4.140625 C 12.785156 -3.253906 12.550781 -2.550781 12.5625 -2.03125 C 12.582031 -1.289062 12.9375 -0.929688 13.625 -0.953125 C 14.195312 -0.960938 14.914062 -1.1875 15.78125 -1.625 C 16.644531 -2.070312 17.53125 -2.617188 18.4375 -3.265625 C 19.351562 -3.921875 20.144531 -4.519531 20.8125 -5.0625 C 22.6875 -6.632812 24.679688 -8.539062 26.796875 -10.78125 C 28.910156 -13.019531 30.941406 -15.539062 32.890625 -18.34375 C 33.335938 -18.988281 33.625 -19.519531 33.75 -19.9375 C 33.882812 -20.363281 33.945312 -20.738281 33.9375 -21.0625 C 33.925781 -21.425781 33.863281 -21.726562 33.75 -21.96875 C 33.632812 -22.207031 33.578125 -22.429688 33.578125 -22.640625 C 33.566406 -22.910156 34.03125 -23.253906 34.96875 -23.671875 C 35.914062 -24.085938 36.8125 -24.304688 37.65625 -24.328125 C 38.550781 -24.347656 39.007812 -24.066406 39.03125 -23.484375 C 39.03125 -23.109375 38.851562 -22.597656 38.5 -21.953125 C 38.144531 -21.316406 37.765625 -20.726562 37.359375 -20.1875 C 36.128906 -18.625 34.660156 -16.925781 32.953125 -15.09375 C 31.660156 -13.6875 30.253906 -12.222656 28.734375 -10.703125 C 27.222656 -9.191406 25.816406 -7.851562 24.515625 -6.6875 C 23.222656 -5.519531 22.238281 -4.664062 21.5625 -4.125 C 20.9375 -3.644531 20.140625 -3.0625 19.171875 -2.375 C 18.210938 -1.6875 17.207031 -1.066406 16.15625 -0.515625 C 15.113281 0.0351562 14.09375 0.320312 13.09375 0.34375 C 12.195312 0.363281 11.425781 0.117188 10.78125 -0.390625 C 10.132812 -0.910156 9.796875 -1.722656 9.765625 -2.828125 C 9.734375 -4.148438 10.304688 -5.804688 11.484375 -7.796875 C 10.085938 -6.335938 8.921875 -5.203125 7.984375 -4.390625 C 7.203125 -3.734375 6.304688 -3.007812 5.296875 -2.21875 C 4.296875 -1.425781 3.257812 -0.753906 2.1875 -0.203125 C 1.113281 0.347656 0.125 0.632812 -0.78125 0.65625 C -1.832031 0.675781 -2.585938 0.453125 -3.046875 -0.015625 C -3.503906 -0.484375 -3.742188 -1.113281 -3.765625 -1.90625 C -3.785156 -3.0625 -3.34375 -4.535156 -2.4375 -6.328125 C -1.53125 -8.117188 -0.222656 -9.9375 1.484375 -11.78125 C 2.410156 -12.800781 3.675781 -13.976562 5.28125 -15.3125 C 6.882812 -16.644531 8.664062 -17.925781 10.625 -19.15625 C 12.582031 -20.382812 14.476562 -21.335938 16.3125 -22.015625 C 14.625 -21.972656 13.039062 -21.800781 11.5625 -21.5 C 10.09375 -21.207031 8.863281 -20.867188 7.875 -20.484375 C 6.925781 -20.085938 6.269531 -19.671875 5.90625 -19.234375 C 5.550781 -18.804688 5.269531 -18.59375 5.0625 -18.59375 C 4.90625 -18.582031 4.816406 -18.84375 4.796875 -19.375 C 4.796875 -19.789062 5 -20.242188 5.40625 -20.734375 C 5.8125 -21.222656 6.4375 -21.609375 7.28125 -21.890625 C 7.90625 -22.109375 8.914062 -22.34375 10.3125 -22.59375 C 11.71875 -22.84375 13.316406 -22.984375 15.109375 -23.015625 C 16.378906 -23.046875 17.597656 -23 18.765625 -22.875 C 19.179688 -22.875 19.390625 -22.765625 19.390625 -22.546875 C 19.390625 -22.492188 19.210938 -22.335938 18.859375 -22.078125 Z M 18.859375 -22.078125 "/></g></g></g><g fill="#092768" fill-opacity="1"><g transform="translate(137.377706, 66.908689)"><g><path d="M 29.34375 -24.0625 C 27.164062 -21.90625 25.070312 -19.742188 23.0625 -17.578125 C 21.050781 -15.421875 19.265625 -13.445312 17.703125 -11.65625 C 16.148438 -9.863281 14.921875 -8.394531 14.015625 -7.25 C 13.078125 -6.039062 12.320312 -4.984375 11.75 -4.078125 C 11.175781 -3.179688 10.90625 -2.46875 10.9375 -1.9375 C 10.957031 -1.46875 11.234375 -1.242188 11.765625 -1.265625 C 12.296875 -1.296875 12.984375 -1.582031 13.828125 -2.125 C 14.671875 -2.664062 15.550781 -3.285156 16.46875 -3.984375 C 17.394531 -4.691406 18.191406 -5.328125 18.859375 -5.890625 C 20.066406 -6.953125 21.316406 -8.101562 22.609375 -9.34375 C 23.898438 -10.59375 25 -11.660156 25.90625 -12.546875 C 26.0625 -12.671875 26.242188 -12.789062 26.453125 -12.90625 C 26.660156 -13.019531 26.84375 -12.976562 27 -12.78125 C 27.226562 -12.570312 27.113281 -12.25 26.65625 -11.8125 C 25.539062 -10.632812 24.328125 -9.4375 23.015625 -8.21875 C 21.703125 -7 20.5625 -5.96875 19.59375 -5.125 C 18.832031 -4.457031 17.953125 -3.726562 16.953125 -2.9375 C 15.960938 -2.15625 14.960938 -1.472656 13.953125 -0.890625 C 12.953125 -0.304688 12.054688 0 11.265625 0.03125 C 9.421875 0.125 8.457031 -0.726562 8.375 -2.53125 C 8.34375 -3.113281 8.476562 -3.835938 8.78125 -4.703125 C 9.082031 -5.566406 9.632812 -6.507812 10.4375 -7.53125 C 8.257812 -5.382812 6.070312 -3.503906 3.875 -1.890625 C 1.6875 -0.273438 -0.0390625 0.5625 -1.3125 0.625 C -3.113281 0.707031 -4.054688 -0.125 -4.140625 -1.875 C -4.265625 -3.300781 -3.78125 -5.082031 -2.6875 -7.21875 C -1.59375 -9.351562 -0.191406 -11.359375 1.515625 -13.234375 C 3.222656 -15.171875 5.1875 -16.972656 7.40625 -18.640625 C 9.632812 -20.304688 11.835938 -21.664062 14.015625 -22.71875 C 16.191406 -23.769531 18.019531 -24.332031 19.5 -24.40625 C 20.226562 -24.4375 20.832031 -24.34375 21.3125 -24.125 C 21.800781 -23.90625 22.0625 -23.453125 22.09375 -22.765625 C 22.113281 -22.335938 21.976562 -21.789062 21.6875 -21.125 C 21.40625 -20.46875 20.84375 -19.664062 20 -18.71875 C 19.945312 -18.65625 19.929688 -18.613281 19.953125 -18.59375 C 19.984375 -18.570312 20.023438 -18.585938 20.078125 -18.640625 C 21.222656 -19.910156 22.382812 -20.992188 23.5625 -21.890625 C 24.738281 -22.785156 25.640625 -23.359375 26.265625 -23.609375 C 26.679688 -23.785156 27.085938 -23.894531 27.484375 -23.9375 C 27.878906 -23.988281 28.285156 -24.019531 28.703125 -24.03125 Z M 21 -22.40625 C 20.96875 -22.988281 20.632812 -23.265625 20 -23.234375 C 18.90625 -23.179688 17.066406 -22.15625 14.484375 -20.15625 C 11.910156 -18.15625 8.832031 -15.269531 5.25 -11.5 C 3.394531 -9.46875 1.785156 -7.492188 0.421875 -5.578125 C -0.941406 -3.660156 -1.601562 -2.25 -1.5625 -1.34375 C -1.550781 -1.132812 -1.503906 -0.953125 -1.421875 -0.796875 C -1.335938 -0.648438 -1.113281 -0.585938 -0.75 -0.609375 C -0.0625 -0.640625 1.023438 -1.164062 2.515625 -2.1875 C 4.015625 -3.207031 5.734375 -4.609375 7.671875 -6.390625 C 9.617188 -8.171875 11.578125 -10.164062 13.546875 -12.375 C 14.441406 -13.375 15.484375 -14.523438 16.671875 -15.828125 C 17.859375 -17.128906 18.882812 -18.394531 19.75 -19.625 C 20.613281 -20.851562 21.03125 -21.78125 21 -22.40625 Z M 21 -22.40625 "/></g></g></g><g fill="#092768" fill-opacity="1"><g transform="translate(162.477478, 65.706638)"><g><path d="M 12.640625 -3.453125 C 11.390625 -2.460938 10.203125 -1.625 9.078125 -0.9375 C 7.953125 -0.257812 6.941406 0.109375 6.046875 0.171875 C 4.203125 0.285156 3.21875 -0.609375 3.09375 -2.515625 C 2.988281 -4.140625 3.597656 -5.953125 4.921875 -7.953125 C 6.242188 -9.953125 8.070312 -12.109375 10.40625 -14.421875 C 11.351562 -15.390625 12.335938 -16.394531 13.359375 -17.4375 C 14.378906 -18.488281 15.242188 -19.421875 15.953125 -20.234375 C 16.660156 -21.046875 16.976562 -21.582031 16.90625 -21.84375 C 16.832031 -22.144531 16.660156 -22.34375 16.390625 -22.4375 C 16.128906 -22.53125 15.695312 -22.6875 15.09375 -22.90625 C 14.382812 -23.238281 13.890625 -23.550781 13.609375 -23.84375 C 12.828125 -22.84375 11.96875 -21.804688 11.03125 -20.734375 C 10.101562 -19.660156 9.144531 -18.570312 8.15625 -17.46875 C 6.820312 -16.050781 5.359375 -14.507812 3.765625 -12.84375 C 2.179688 -11.175781 0.863281 -9.859375 -0.1875 -8.890625 C -0.332031 -8.722656 -0.507812 -8.601562 -0.71875 -8.53125 C -0.925781 -8.46875 -1.09375 -8.507812 -1.21875 -8.65625 C -1.320312 -8.8125 -1.328125 -8.984375 -1.234375 -9.171875 C -1.140625 -9.367188 -1.015625 -9.523438 -0.859375 -9.640625 C 0.335938 -10.816406 1.675781 -12.171875 3.15625 -13.703125 C 4.644531 -15.234375 6.03125 -16.707031 7.3125 -18.125 C 8.5625 -19.414062 9.648438 -20.609375 10.578125 -21.703125 C 11.503906 -22.796875 12.359375 -23.875 13.140625 -24.9375 C 13.109375 -25.519531 13.351562 -26.222656 13.875 -27.046875 C 14.40625 -27.867188 15.097656 -28.65625 15.953125 -29.40625 C 16.640625 -29.976562 17.289062 -30.429688 17.90625 -30.765625 C 18.53125 -31.097656 19.050781 -31.304688 19.46875 -31.390625 C 19.625 -31.453125 19.894531 -31.519531 20.28125 -31.59375 C 20.675781 -31.675781 21.0625 -31.726562 21.4375 -31.75 C 22.226562 -31.800781 22.632812 -31.722656 22.65625 -31.515625 C 22.664062 -31.347656 22.351562 -31.003906 21.71875 -30.484375 C 21.09375 -29.972656 20.394531 -29.46875 19.625 -28.96875 C 18.863281 -28.46875 18.300781 -28.101562 17.9375 -27.875 C 17.132812 -27.28125 16.378906 -26.695312 15.671875 -26.125 C 14.972656 -25.550781 14.640625 -25.054688 14.671875 -24.640625 C 14.679688 -24.421875 14.957031 -24.210938 15.5 -24.015625 C 16.039062 -23.816406 16.445312 -23.671875 16.71875 -23.578125 C 18.226562 -23.203125 19.015625 -22.515625 19.078125 -21.515625 C 19.148438 -20.453125 18.832031 -19.300781 18.125 -18.0625 C 17.414062 -16.832031 16.539062 -15.613281 15.5 -14.40625 C 14.46875 -13.195312 13.523438 -12.144531 12.671875 -11.25 C 11.285156 -9.78125 10.070312 -8.476562 9.03125 -7.34375 C 8 -6.21875 7.144531 -5.179688 6.46875 -4.234375 C 5.6875 -3.179688 5.316406 -2.363281 5.359375 -1.78125 C 5.390625 -1.257812 5.722656 -1.019531 6.359375 -1.0625 C 7.097656 -1.113281 8.085938 -1.5625 9.328125 -2.40625 C 10.578125 -3.257812 11.601562 -4 12.40625 -4.625 C 13.71875 -5.71875 15.117188 -6.988281 16.609375 -8.4375 C 18.097656 -9.894531 19.34375 -11.078125 20.34375 -11.984375 C 20.5 -12.148438 20.675781 -12.289062 20.875 -12.40625 C 21.070312 -12.519531 21.253906 -12.503906 21.421875 -12.359375 C 21.660156 -12.171875 21.679688 -11.953125 21.484375 -11.703125 C 21.285156 -11.453125 21.085938 -11.238281 20.890625 -11.0625 C 19.734375 -9.925781 18.421875 -8.660156 16.953125 -7.265625 C 15.484375 -5.867188 14.046875 -4.597656 12.640625 -3.453125 Z M 12.640625 -3.453125 "/></g></g></g></g></g><g transform="matrix(1, 0, 0, 1, 96, 219)"><g clip-path="url(#15729fbd31)"><g fill="#092768" fill-opacity="1"><g transform="translate(1.095631, 12.718389)"><g><path d="M 6.484375 0 L 6.484375 -3.53125 L 3.046875 -3.53125 L 3.046875 0 L 1.046875 0 L 1.046875 -8.765625 L 3.046875 -8.765625 L 3.046875 -5.40625 L 6.484375 -5.40625 L 6.484375 -8.765625 L 8.46875 -8.765625 L 8.46875 0 Z M 6.484375 0 "/></g></g></g><g fill="#092768" fill-opacity="1"><g transform="translate(14.700643, 12.718389)"><g><path d="M 5.21875 0.171875 C 4.300781 0.171875 3.488281 -0.0195312 2.78125 -0.40625 C 2.082031 -0.789062 1.53125 -1.328125 1.125 -2.015625 C 0.726562 -2.703125 0.53125 -3.492188 0.53125 -4.390625 C 0.53125 -5.285156 0.726562 -6.070312 1.125 -6.75 C 1.53125 -7.4375 2.082031 -7.972656 2.78125 -8.359375 C 3.488281 -8.753906 4.300781 -8.953125 5.21875 -8.953125 C 6.132812 -8.953125 6.941406 -8.753906 7.640625 -8.359375 C 8.347656 -7.972656 8.898438 -7.4375 9.296875 -6.75 C 9.703125 -6.070312 9.90625 -5.285156 9.90625 -4.390625 C 9.90625 -3.492188 9.703125 -2.703125 9.296875 -2.015625 C 8.898438 -1.328125 8.347656 -0.789062 7.640625 -0.40625 C 6.941406 -0.0195312 6.132812 0.171875 5.21875 0.171875 Z M 2.5625 -4.390625 C 2.5625 -3.859375 2.675781 -3.390625 2.90625 -2.984375 C 3.132812 -2.585938 3.445312 -2.273438 3.84375 -2.046875 C 4.238281 -1.828125 4.695312 -1.71875 5.21875 -1.71875 C 5.738281 -1.71875 6.195312 -1.828125 6.59375 -2.046875 C 6.988281 -2.273438 7.296875 -2.585938 7.515625 -2.984375 C 7.742188 -3.390625 7.859375 -3.859375 7.859375 -4.390625 C 7.859375 -4.910156 7.742188 -5.367188 7.515625 -5.765625 C 7.296875 -6.171875 6.988281 -6.488281 6.59375 -6.71875 C 6.195312 -6.945312 5.738281 -7.0625 5.21875 -7.0625 C 4.695312 -7.0625 4.238281 -6.945312 3.84375 -6.71875 C 3.445312 -6.488281 3.132812 -6.171875 2.90625 -5.765625 C 2.675781 -5.367188 2.5625 -4.910156 2.5625 -4.390625 Z M 2.5625 -4.390625 "/></g></g></g><g fill="#092768" fill-opacity="1"><g transform="translate(29.220033, 12.718389)"><g><path d="M 3.15625 0 L 3.15625 -6.90625 L 0.375 -6.90625 L 0.375 -8.765625 L 7.9375 -8.765625 L 7.9375 -6.90625 L 5.15625 -6.90625 L 5.15625 0 Z M 3.15625 0 "/></g></g></g><g fill="#092768" fill-opacity="1"><g transform="translate(41.610059, 12.718389)"><g><path d="M 1.046875 0 L 1.046875 -8.765625 L 6.8125 -8.765625 L 6.8125 -7.09375 L 3.03125 -7.09375 L 3.03125 -5.28125 L 6.484375 -5.28125 L 6.484375 -3.609375 L 3.03125 -3.609375 L 3.03125 -1.6875 L 6.953125 -1.6875 L 6.953125 0 Z M 1.046875 0 "/></g></g></g><g fill="#092768" fill-opacity="1"><g transform="translate(53.286121, 12.718389)"><g><path d="M 1.046875 0 L 1.046875 -8.765625 L 3.046875 -8.765625 L 3.046875 -1.859375 L 6.875 -1.859375 L 6.875 0 Z M 1.046875 0 "/></g></g></g><g fill="#092768" fill-opacity="1"><g transform="translate(64.586413, 12.718389)"><g/></g></g><g fill="#092768" fill-opacity="1"><g transform="translate(71.615461, 12.718389)"><g><path d="M 3.71875 0.171875 C 2.726562 0.171875 1.9375 -0.046875 1.34375 -0.484375 C 0.757812 -0.921875 0.46875 -1.515625 0.46875 -2.265625 C 0.46875 -3.285156 1.019531 -4.085938 2.125 -4.671875 C 1.789062 -5.054688 1.546875 -5.410156 1.390625 -5.734375 C 1.234375 -6.066406 1.15625 -6.398438 1.15625 -6.734375 C 1.15625 -7.179688 1.269531 -7.566406 1.5 -7.890625 C 1.738281 -8.222656 2.070312 -8.484375 2.5 -8.671875 C 2.925781 -8.859375 3.414062 -8.953125 3.96875 -8.953125 C 4.550781 -8.953125 5.050781 -8.851562 5.46875 -8.65625 C 5.894531 -8.46875 6.226562 -8.195312 6.46875 -7.84375 C 6.707031 -7.5 6.828125 -7.09375 6.828125 -6.625 C 6.828125 -5.539062 6.1875 -4.707031 4.90625 -4.125 L 6.171875 -2.78125 C 6.398438 -3.207031 6.519531 -3.6875 6.53125 -4.21875 L 8.171875 -4.21875 C 8.160156 -3.707031 8.082031 -3.226562 7.9375 -2.78125 C 7.800781 -2.332031 7.609375 -1.925781 7.359375 -1.5625 L 8.84375 0 L 6.734375 0 L 6.234375 -0.515625 C 5.898438 -0.296875 5.519531 -0.125 5.09375 0 C 4.675781 0.113281 4.21875 0.171875 3.71875 0.171875 Z M 2.34375 -2.390625 C 2.34375 -2.085938 2.46875 -1.84375 2.71875 -1.65625 C 2.96875 -1.476562 3.320312 -1.390625 3.78125 -1.390625 C 4.238281 -1.390625 4.65625 -1.484375 5.03125 -1.671875 L 3.234375 -3.515625 C 2.640625 -3.234375 2.34375 -2.859375 2.34375 -2.390625 Z M 2.9375 -6.625 C 2.9375 -6.46875 2.992188 -6.289062 3.109375 -6.09375 C 3.234375 -5.90625 3.457031 -5.640625 3.78125 -5.296875 C 4.21875 -5.460938 4.535156 -5.648438 4.734375 -5.859375 C 4.929688 -6.066406 5.03125 -6.296875 5.03125 -6.546875 C 5.03125 -6.816406 4.9375 -7.023438 4.75 -7.171875 C 4.5625 -7.316406 4.296875 -7.390625 3.953125 -7.390625 C 3.648438 -7.390625 3.40625 -7.320312 3.21875 -7.1875 C 3.03125 -7.0625 2.9375 -6.875 2.9375 -6.625 Z M 2.9375 -6.625 "/></g></g></g><g fill="#092768" fill-opacity="1"><g transform="translate(84.882277, 12.718389)"><g/></g></g><g fill="#092768" fill-opacity="1"><g transform="translate(91.911325, 12.718389)"><g><path d="M 1.046875 0 L 1.046875 -8.765625 L 4.796875 -8.765625 C 5.460938 -8.765625 6.039062 -8.644531 6.53125 -8.40625 C 7.03125 -8.164062 7.410156 -7.816406 7.671875 -7.359375 C 7.941406 -6.910156 8.078125 -6.375 8.078125 -5.75 C 8.078125 -5.101562 7.929688 -4.546875 7.640625 -4.078125 C 7.347656 -3.617188 6.941406 -3.273438 6.421875 -3.046875 L 8.234375 0 L 5.921875 0 L 4.359375 -2.734375 L 3.046875 -2.734375 L 3.046875 0 Z M 3.015625 -4.40625 L 4.53125 -4.40625 C 5.03125 -4.40625 5.410156 -4.519531 5.671875 -4.75 C 5.929688 -4.976562 6.0625 -5.304688 6.0625 -5.734375 C 6.0625 -6.160156 5.929688 -6.488281 5.671875 -6.71875 C 5.410156 -6.945312 5.03125 -7.0625 4.53125 -7.0625 L 3.015625 -7.0625 Z M 3.015625 -4.40625 "/></g></g></g><g fill="#092768" fill-opacity="1"><g transform="translate(104.814902, 12.718389)"><g><path d="M 1.046875 0 L 1.046875 -8.765625 L 6.8125 -8.765625 L 6.8125 -7.09375 L 3.03125 -7.09375 L 3.03125 -5.28125 L 6.484375 -5.28125 L 6.484375 -3.609375 L 3.03125 -3.609375 L 3.03125 -1.6875 L 6.953125 -1.6875 L 6.953125 0 Z M 1.046875 0 "/></g></g></g><g fill="#092768" fill-opacity="1"><g transform="translate(116.490963, 12.718389)"><g><path d="M 4.109375 0.171875 C 3.367188 0.171875 2.734375 0.0507812 2.203125 -0.1875 C 1.679688 -0.425781 1.273438 -0.769531 0.984375 -1.21875 C 0.691406 -1.664062 0.546875 -2.191406 0.546875 -2.796875 L 2.5 -2.796875 C 2.5 -2.378906 2.644531 -2.050781 2.9375 -1.8125 C 3.226562 -1.582031 3.613281 -1.46875 4.09375 -1.46875 C 4.507812 -1.46875 4.835938 -1.546875 5.078125 -1.703125 C 5.328125 -1.867188 5.453125 -2.097656 5.453125 -2.390625 C 5.453125 -2.703125 5.304688 -2.953125 5.015625 -3.140625 C 4.722656 -3.335938 4.265625 -3.503906 3.640625 -3.640625 C 2.617188 -3.847656 1.859375 -4.171875 1.359375 -4.609375 C 0.867188 -5.054688 0.625 -5.640625 0.625 -6.359375 C 0.625 -7.160156 0.914062 -7.789062 1.5 -8.25 C 2.082031 -8.71875 2.878906 -8.953125 3.890625 -8.953125 C 4.585938 -8.953125 5.191406 -8.832031 5.703125 -8.59375 C 6.210938 -8.351562 6.609375 -8.015625 6.890625 -7.578125 C 7.171875 -7.148438 7.3125 -6.640625 7.3125 -6.046875 L 5.390625 -6.046875 C 5.390625 -6.441406 5.257812 -6.75 5 -6.96875 C 4.738281 -7.195312 4.378906 -7.3125 3.921875 -7.3125 C 3.503906 -7.3125 3.171875 -7.226562 2.921875 -7.0625 C 2.679688 -6.90625 2.5625 -6.679688 2.5625 -6.390625 C 2.5625 -6.117188 2.695312 -5.890625 2.96875 -5.703125 C 3.238281 -5.523438 3.707031 -5.359375 4.375 -5.203125 C 5.46875 -4.941406 6.253906 -4.59375 6.734375 -4.15625 C 7.222656 -3.726562 7.46875 -3.164062 7.46875 -2.46875 C 7.46875 -1.644531 7.164062 -1 6.5625 -0.53125 C 5.96875 -0.0625 5.148438 0.171875 4.109375 0.171875 Z M 4.109375 0.171875 "/></g></g></g><g fill="#092768" fill-opacity="1"><g transform="translate(128.605427, 12.718389)"><g><path d="M 5.21875 0.171875 C 4.300781 0.171875 3.488281 -0.0195312 2.78125 -0.40625 C 2.082031 -0.789062 1.53125 -1.328125 1.125 -2.015625 C 0.726562 -2.703125 0.53125 -3.492188 0.53125 -4.390625 C 0.53125 -5.285156 0.726562 -6.070312 1.125 -6.75 C 1.53125 -7.4375 2.082031 -7.972656 2.78125 -8.359375 C 3.488281 -8.753906 4.300781 -8.953125 5.21875 -8.953125 C 6.132812 -8.953125 6.941406 -8.753906 7.640625 -8.359375 C 8.347656 -7.972656 8.898438 -7.4375 9.296875 -6.75 C 9.703125 -6.070312 9.90625 -5.285156 9.90625 -4.390625 C 9.90625 -3.492188 9.703125 -2.703125 9.296875 -2.015625 C 8.898438 -1.328125 8.347656 -0.789062 7.640625 -0.40625 C 6.941406 -0.0195312 6.132812 0.171875 5.21875 0.171875 Z M 2.5625 -4.390625 C 2.5625 -3.859375 2.675781 -3.390625 2.90625 -2.984375 C 3.132812 -2.585938 3.445312 -2.273438 3.84375 -2.046875 C 4.238281 -1.828125 4.695312 -1.71875 5.21875 -1.71875 C 5.738281 -1.71875 6.195312 -1.828125 6.59375 -2.046875 C 6.988281 -2.273438 7.296875 -2.585938 7.515625 -2.984375 C 7.742188 -3.390625 7.859375 -3.859375 7.859375 -4.390625 C 7.859375 -4.910156 7.742188 -5.367188 7.515625 -5.765625 C 7.296875 -6.171875 6.988281 -6.488281 6.59375 -6.71875 C 6.195312 -6.945312 5.738281 -7.0625 5.21875 -7.0625 C 4.695312 -7.0625 4.238281 -6.945312 3.84375 -6.71875 C 3.445312 -6.488281 3.132812 -6.171875 2.90625 -5.765625 C 2.675781 -5.367188 2.5625 -4.910156 2.5625 -4.390625 Z M 2.5625 -4.390625 "/></g></g></g><g fill="#092768" fill-opacity="1"><g transform="translate(143.124818, 12.718389)"><g><path d="M 1.046875 0 L 1.046875 -8.765625 L 4.796875 -8.765625 C 5.460938 -8.765625 6.039062 -8.644531 6.53125 -8.40625 C 7.03125 -8.164062 7.410156 -7.816406 7.671875 -7.359375 C 7.941406 -6.910156 8.078125 -6.375 8.078125 -5.75 C 8.078125 -5.101562 7.929688 -4.546875 7.640625 -4.078125 C 7.347656 -3.617188 6.941406 -3.273438 6.421875 -3.046875 L 8.234375 0 L 5.921875 0 L 4.359375 -2.734375 L 3.046875 -2.734375 L 3.046875 0 Z M 3.015625 -4.40625 L 4.53125 -4.40625 C 5.03125 -4.40625 5.410156 -4.519531 5.671875 -4.75 C 5.929688 -4.976562 6.0625 -5.304688 6.0625 -5.734375 C 6.0625 -6.160156 5.929688 -6.488281 5.671875 -6.71875 C 5.410156 -6.945312 5.03125 -7.0625 4.53125 -7.0625 L 3.015625 -7.0625 Z M 3.015625 -4.40625 "/></g></g></g><g fill="#092768" fill-opacity="1"><g transform="translate(156.028395, 12.718389)"><g><path d="M 3.15625 0 L 3.15625 -6.90625 L 0.375 -6.90625 L 0.375 -8.765625 L 7.9375 -8.765625 L 7.9375 -6.90625 L 5.15625 -6.90625 L 5.15625 0 Z M 3.15625 0 "/></g></g></g></g></g></svg>